<svg xmlns="http://www.w3.org/2000/svg" viewBox="0 0 340 415" preserveAspectRatio="xMidYMid meet">
  <defs>
    <style>.s{fill:#3d4e30;}</style>
  </defs>
  <!-- Main diagonal stem -->
  <path d="M 300 8 C 250 70 190 150 140 240 C 100 310 72 370 50 415" 
        stroke="#3d4e30" stroke-width="1.8" fill="none" stroke-linecap="round" opacity="0.7"/>
  <!-- Secondary thinner stem -->
  <path d="M 280 28 C 244 90 208 162 172 240"
        stroke="#3d4e30" stroke-width="1.1" fill="none" stroke-linecap="round" opacity="0.45"/>

  <!-- Leaf cluster 1 -->
  <path d="M 298 18 C 320 2 338 8 336 26 C 318 38 298 30 298 18Z" class="s" opacity="0.68"/>
  <path d="M 282 14 C 264 -2 248 4 248 20 C 262 32 280 28 282 14Z" class="s" opacity="0.58"/>

  <!-- Leaf cluster 2 -->
  <path d="M 268 52 C 294 34 312 42 308 60 C 290 72 268 64 268 52Z" class="s" opacity="0.65"/>
  <path d="M 254 44 C 232 30 216 38 218 56 C 232 66 252 60 254 44Z" class="s" opacity="0.55"/>

  <!-- Leaf cluster 3 -->
  <path d="M 240 92 C 266 72 284 82 278 100 C 260 114 240 104 240 92Z" class="s" opacity="0.62"/>
  <path d="M 226 82 C 200 66 185 76 188 96 C 202 108 224 100 226 82Z" class="s" opacity="0.52"/>

  <!-- Leaf cluster 4 -->
  <path d="M 208 138 C 236 116 252 128 246 148 C 228 162 208 152 208 138Z" class="s" opacity="0.6"/>
  <path d="M 196 126 C 168 110 153 122 157 142 C 172 155 194 147 196 126Z" class="s" opacity="0.5"/>

  <!-- Leaf cluster 5 -->
  <path d="M 180 188 C 206 168 222 180 216 200 C 198 214 178 204 180 188Z" class="s" opacity="0.57"/>
  <path d="M 168 176 C 141 160 127 172 131 192 C 147 205 168 197 168 176Z" class="s" opacity="0.47"/>

  <!-- Leaf cluster 6 -->
  <path d="M 154 244 C 180 222 196 236 190 256 C 172 270 152 260 154 244Z" class="s" opacity="0.54"/>
  <path d="M 142 232 C 116 215 102 228 107 248 C 122 262 142 254 142 232Z" class="s" opacity="0.44"/>

  <!-- Leaf cluster 7 -->
  <path d="M 126 304 C 152 282 168 296 162 316 C 144 330 124 320 126 304Z" class="s" opacity="0.5"/>
  <path d="M 115 292 C 89 276 75 290 80 310 C 95 324 115 316 115 292Z" class="s" opacity="0.4"/>

  <!-- Berry dots -->
  <circle cx="310" cy="16" r="2.5" fill="#3d4e30" opacity="0.55"/>
  <circle cx="264" cy="48" r="2" fill="#3d4e30" opacity="0.45"/>
  <circle cx="236" cy="96" r="2" fill="#3d4e30" opacity="0.4"/>
</svg>
